<?xml version="1.0" encoding="utf-8"?>
<!-- Generator: Adobe Illustrator 16.0.0, SVG Export Plug-In . SVG Version: 6.00 Build 0)  -->
<!DOCTYPE svg PUBLIC "-//W3C//DTD SVG 1.1//EN" "http://www.w3.org/Graphics/SVG/1.1/DTD/svg11.dtd">
<svg version="1.1" id="레이어_1" xmlns="http://www.w3.org/2000/svg" xmlns:xlink="http://www.w3.org/1999/xlink" x="0px"
	 y="0px" width="100px" height="100px" viewBox="0 0 100 100" enable-background="new 0 0 100 100" xml:space="preserve">
<path fill="#FFFFFF" d="M33.654,96.677c-2.039,0-4.026-1.039-5.151-2.914L2.246,50L28.503,6.238
	c1.705-2.841,5.391-3.764,8.232-2.058c2.842,1.705,3.763,5.391,2.058,8.232L16.24,50l22.553,37.589
	c1.705,2.842,0.783,6.527-2.058,8.231C35.769,96.4,34.705,96.677,33.654,96.677z"/>
<path fill="#FFFFFF" d="M66.256,96.677c-1.051,0-2.114-0.276-3.081-0.856c-2.842-1.704-3.763-5.39-2.058-8.231L83.67,50
	L61.117,12.412c-1.705-2.841-0.784-6.527,2.058-8.232c2.839-1.704,6.526-0.783,8.231,2.058L97.664,50L71.406,93.763
	C70.281,95.638,68.294,96.677,66.256,96.677z"/>
<path fill="#FFFFFF" d="M33.646,96.678c-0.743,0-1.499-0.14-2.23-0.433c-3.076-1.233-4.57-4.727-3.337-7.802L60.692,7.093
	c1.233-3.076,4.729-4.57,7.802-3.337c3.076,1.233,4.569,4.726,3.337,7.802L39.218,92.908C38.278,95.252,36.026,96.678,33.646,96.678
	z"/>
</svg>
